<svg width="220" height="56" viewBox="0 0 220 56" fill="none" xmlns="http://www.w3.org/2000/svg">
    <g transform="translate(2,2)">
        <rect width="52" height="52" rx="12" fill="#FFFFFF" opacity="0.1"/>
        <g transform="translate(8,12)" stroke="#FFFFFF" stroke-width="2.5" stroke-linecap="round" stroke-linejoin="round">
            <path d="M6 18 h28 l4 6 v8 a2 2 0 0 1 -2 2 h-2 a2 2 0 0 1 -2 -2 v-2 H12 v2 a2 2 0 0 1 -2 2 H8 a2 2 0 0 1 -2 -2 v-8 l4 -6 z" fill="none"/>
            <path d="M12 18 l4 -7 a6 6 0 0 1 5 -3 h6 a6 6 0 0 1 5 3 l4 7" />
            <circle cx="14" cy="34" r="3.5" fill="#FFFFFF" />
            <circle cx="34" cy="34" r="3.5" fill="#FFFFFF" />
            <line x1="16" y1="24" x2="32" y2="24"/>
        </g>
        <g font-family="Inter, Poppins, system-ui, -apple-system, sans-serif">
            <text x="64" y="26" font-size="18" font-weight="700" fill="#FFFFFF" letter-spacing="0.5">CAR</text>
            <rect x="104" y="10" rx="12" ry="12" width="56" height="28" fill="#FFFFFF"/>
            <text x="112" y="30" font-size="16" font-weight="800" fill="#111827" letter-spacing="1">GO</text>
        </g>
    </g>
</svg>
